<mxfile host="app.diagrams.net" agent="Mozilla/5.0 (Macintosh; Intel Mac OS X 10_15_7) AppleWebKit/605.1.15 (KHTML, like Gecko) Version/17.6 Safari/605.1.15" version="24.8.4">
  <diagram name="第 1 页" id="HVrorAxLob_VcS8i4H9n">
    <mxGraphModel dx="1545" dy="1567" grid="0" gridSize="10" guides="1" tooltips="1" connect="1" arrows="1" fold="1" page="0" pageScale="1" pageWidth="1390" pageHeight="980" math="0" shadow="0">
      <root>
        <mxCell id="0" />
        <mxCell id="1" parent="0" />
        <mxCell id="XJL--FenHUG43WM42UjI-4" style="edgeStyle=none;curved=1;rounded=0;orthogonalLoop=1;jettySize=auto;html=1;exitX=1;exitY=0.5;exitDx=0;exitDy=0;entryX=0;entryY=0.5;entryDx=0;entryDy=0;fontSize=12;startSize=8;endSize=8;" edge="1" parent="1" source="XJL--FenHUG43WM42UjI-2" target="XJL--FenHUG43WM42UjI-3">
          <mxGeometry relative="1" as="geometry" />
        </mxCell>
        <mxCell id="XJL--FenHUG43WM42UjI-2" value="&lt;span style=&quot;caret-color: rgb(51, 51, 51); color: rgb(51, 51, 51); font-size: 18px;&quot;&gt;Image&lt;/span&gt;" style="shape=document;whiteSpace=wrap;html=1;boundedLbl=1;" vertex="1" parent="1">
          <mxGeometry x="-92" y="-542" width="120" height="58" as="geometry" />
        </mxCell>
        <mxCell id="XJL--FenHUG43WM42UjI-6" style="edgeStyle=none;curved=1;rounded=0;orthogonalLoop=1;jettySize=auto;html=1;exitX=1;exitY=0.5;exitDx=0;exitDy=0;entryX=0;entryY=0.5;entryDx=0;entryDy=0;fontSize=12;startSize=8;endSize=8;" edge="1" parent="1" source="XJL--FenHUG43WM42UjI-3" target="XJL--FenHUG43WM42UjI-5">
          <mxGeometry relative="1" as="geometry" />
        </mxCell>
        <mxCell id="XJL--FenHUG43WM42UjI-3" value="&lt;font style=&quot;font-size: 18px;&quot;&gt;Mediapipe DL Model&lt;/font&gt;&lt;div&gt;&lt;div style=&quot;font-size: 18px;&quot;&gt;&lt;font style=&quot;font-size: 18px;&quot;&gt;&amp;nbsp;Eye detection&lt;/font&gt;&lt;/div&gt;&lt;/div&gt;" style="rounded=0;whiteSpace=wrap;html=1;fillColor=#f5f5f5;fontColor=#333333;strokeColor=#666666;" vertex="1" parent="1">
          <mxGeometry x="74" y="-541" width="186" height="57" as="geometry" />
        </mxCell>
        <mxCell id="XJL--FenHUG43WM42UjI-8" style="edgeStyle=none;curved=1;rounded=0;orthogonalLoop=1;jettySize=auto;html=1;exitX=1;exitY=0.5;exitDx=0;exitDy=0;entryX=0;entryY=0.5;entryDx=0;entryDy=0;fontSize=12;startSize=8;endSize=8;" edge="1" parent="1" source="XJL--FenHUG43WM42UjI-5" target="XJL--FenHUG43WM42UjI-7">
          <mxGeometry relative="1" as="geometry" />
        </mxCell>
        <mxCell id="XJL--FenHUG43WM42UjI-5" value="&lt;font style=&quot;font-size: 18px;&quot;&gt;Area Ratio&lt;/font&gt;" style="rounded=0;whiteSpace=wrap;html=1;fillColor=#f5f5f5;fontColor=#333333;strokeColor=#666666;" vertex="1" parent="1">
          <mxGeometry x="315" y="-543" width="103" height="60" as="geometry" />
        </mxCell>
        <mxCell id="XJL--FenHUG43WM42UjI-10" style="edgeStyle=none;curved=1;rounded=0;orthogonalLoop=1;jettySize=auto;html=1;exitX=0.5;exitY=1;exitDx=0;exitDy=0;entryX=0.5;entryY=0;entryDx=0;entryDy=0;fontSize=12;startSize=8;endSize=8;" edge="1" parent="1" source="XJL--FenHUG43WM42UjI-7" target="XJL--FenHUG43WM42UjI-9">
          <mxGeometry relative="1" as="geometry" />
        </mxCell>
        <mxCell id="XJL--FenHUG43WM42UjI-16" style="edgeStyle=none;curved=1;rounded=0;orthogonalLoop=1;jettySize=auto;html=1;exitX=1;exitY=0.5;exitDx=0;exitDy=0;entryX=0;entryY=0.5;entryDx=0;entryDy=0;fontSize=12;startSize=8;endSize=8;" edge="1" parent="1" source="XJL--FenHUG43WM42UjI-7" target="XJL--FenHUG43WM42UjI-14">
          <mxGeometry relative="1" as="geometry" />
        </mxCell>
        <mxCell id="XJL--FenHUG43WM42UjI-7" value="&lt;font style=&quot;font-size: 18px;&quot;&gt;Area &amp;gt; threshold&lt;/font&gt;&lt;div style=&quot;font-size: 18px;&quot;&gt;&lt;font style=&quot;font-size: 18px;&quot;&gt;Eye open&lt;/font&gt;&lt;/div&gt;" style="rhombus;whiteSpace=wrap;html=1;fillColor=#f5f5f5;fontColor=#333333;strokeColor=#666666;" vertex="1" parent="1">
          <mxGeometry x="483" y="-564" width="186" height="103" as="geometry" />
        </mxCell>
        <mxCell id="XJL--FenHUG43WM42UjI-15" style="edgeStyle=none;curved=1;rounded=0;orthogonalLoop=1;jettySize=auto;html=1;exitX=0;exitY=0.5;exitDx=0;exitDy=0;entryX=0.5;entryY=1;entryDx=0;entryDy=0;fontSize=12;startSize=8;endSize=8;" edge="1" parent="1" source="XJL--FenHUG43WM42UjI-9" target="XJL--FenHUG43WM42UjI-3">
          <mxGeometry relative="1" as="geometry">
            <Array as="points">
              <mxPoint x="175" y="-357" />
              <mxPoint x="167" y="-395" />
            </Array>
          </mxGeometry>
        </mxCell>
        <mxCell id="XJL--FenHUG43WM42UjI-9" value="&lt;font style=&quot;font-size: 18px;&quot;&gt;Blink +1&lt;/font&gt;" style="rounded=0;whiteSpace=wrap;html=1;fillColor=#fff2cc;strokeColor=#d6b656;" vertex="1" parent="1">
          <mxGeometry x="516" y="-381" width="120" height="39" as="geometry" />
        </mxCell>
        <mxCell id="XJL--FenHUG43WM42UjI-13" value="No&lt;div&gt;log time&lt;/div&gt;" style="text;html=1;align=left;verticalAlign=middle;whiteSpace=wrap;rounded=0;fontSize=16;" vertex="1" parent="1">
          <mxGeometry x="583" y="-441" width="60" height="30" as="geometry" />
        </mxCell>
        <mxCell id="XJL--FenHUG43WM42UjI-20" style="edgeStyle=none;curved=1;rounded=0;orthogonalLoop=1;jettySize=auto;html=1;entryX=0.5;entryY=0;entryDx=0;entryDy=0;fontSize=12;startSize=8;endSize=8;" edge="1" parent="1" source="XJL--FenHUG43WM42UjI-14" target="XJL--FenHUG43WM42UjI-19">
          <mxGeometry relative="1" as="geometry" />
        </mxCell>
        <mxCell id="XJL--FenHUG43WM42UjI-14" value="&lt;font style=&quot;font-size: 18px;&quot;&gt;counting&lt;/font&gt;&lt;div style=&quot;font-size: 18px;&quot;&gt;&lt;font style=&quot;font-size: 18px;&quot;&gt;(ms)&lt;/font&gt;&lt;/div&gt;" style="rounded=0;whiteSpace=wrap;html=1;fillColor=#fff2cc;strokeColor=#d6b656;" vertex="1" parent="1">
          <mxGeometry x="746" y="-537.5" width="120" height="49" as="geometry" />
        </mxCell>
        <mxCell id="XJL--FenHUG43WM42UjI-17" value="Yes" style="text;html=1;align=center;verticalAlign=middle;whiteSpace=wrap;rounded=0;fontSize=16;" vertex="1" parent="1">
          <mxGeometry x="675" y="-541" width="60" height="30" as="geometry" />
        </mxCell>
        <mxCell id="XJL--FenHUG43WM42UjI-18" value="log time" style="text;html=1;align=center;verticalAlign=middle;whiteSpace=wrap;rounded=0;fontSize=16;" vertex="1" parent="1">
          <mxGeometry x="675" y="-514" width="60" height="30" as="geometry" />
        </mxCell>
        <mxCell id="XJL--FenHUG43WM42UjI-23" style="edgeStyle=none;curved=1;rounded=0;orthogonalLoop=1;jettySize=auto;html=1;exitX=0.5;exitY=1;exitDx=0;exitDy=0;fontSize=12;startSize=8;endSize=8;" edge="1" parent="1" source="XJL--FenHUG43WM42UjI-19" target="XJL--FenHUG43WM42UjI-22">
          <mxGeometry relative="1" as="geometry" />
        </mxCell>
        <mxCell id="XJL--FenHUG43WM42UjI-19" value="&lt;font style=&quot;font-size: 18px;&quot;&gt;Blink &amp;gt; 15?&lt;/font&gt;" style="rhombus;whiteSpace=wrap;html=1;fillColor=#fff2cc;strokeColor=#d6b656;" vertex="1" parent="1">
          <mxGeometry x="733.5" y="-426" width="145" height="80" as="geometry" />
        </mxCell>
        <mxCell id="XJL--FenHUG43WM42UjI-21" value="1 min" style="text;html=1;align=center;verticalAlign=middle;whiteSpace=wrap;rounded=0;fontSize=16;" vertex="1" parent="1">
          <mxGeometry x="800" y="-474" width="60" height="30" as="geometry" />
        </mxCell>
        <mxCell id="XJL--FenHUG43WM42UjI-22" value="&lt;font style=&quot;font-size: 18px;&quot;&gt;Alarm&lt;/font&gt;" style="rounded=0;whiteSpace=wrap;html=1;fillColor=#f8cecc;strokeColor=#b85450;" vertex="1" parent="1">
          <mxGeometry x="766" y="-275" width="80" height="37" as="geometry" />
        </mxCell>
        <mxCell id="XJL--FenHUG43WM42UjI-24" value="No" style="text;html=1;align=center;verticalAlign=middle;whiteSpace=wrap;rounded=0;fontSize=16;" vertex="1" parent="1">
          <mxGeometry x="793" y="-318" width="60" height="30" as="geometry" />
        </mxCell>
        <mxCell id="XJL--FenHUG43WM42UjI-25" value="" style="endArrow=classic;html=1;rounded=0;fontSize=12;startSize=8;endSize=8;curved=1;entryX=0.25;entryY=1;entryDx=0;entryDy=0;" edge="1" parent="1" target="XJL--FenHUG43WM42UjI-3">
          <mxGeometry width="50" height="50" relative="1" as="geometry">
            <mxPoint x="806" y="-320" as="sourcePoint" />
            <mxPoint x="108" y="-326" as="targetPoint" />
            <Array as="points">
              <mxPoint x="467" y="-319" />
              <mxPoint x="127" y="-322" />
              <mxPoint x="121" y="-422" />
            </Array>
          </mxGeometry>
        </mxCell>
        <mxCell id="XJL--FenHUG43WM42UjI-26" value="Yes" style="text;html=1;align=center;verticalAlign=middle;whiteSpace=wrap;rounded=0;fontSize=16;" vertex="1" parent="1">
          <mxGeometry x="733.5" y="-348" width="60" height="30" as="geometry" />
        </mxCell>
        <mxCell id="XJL--FenHUG43WM42UjI-29" value="" style="endArrow=none;html=1;rounded=0;fontSize=12;startSize=8;endSize=8;curved=1;entryX=0;entryY=0.5;entryDx=0;entryDy=0;" edge="1" parent="1" target="XJL--FenHUG43WM42UjI-22">
          <mxGeometry width="50" height="50" relative="1" as="geometry">
            <mxPoint x="124" y="-372" as="sourcePoint" />
            <mxPoint x="223" y="-280" as="targetPoint" />
            <Array as="points">
              <mxPoint x="125" y="-335" />
              <mxPoint x="127" y="-306" />
              <mxPoint x="137" y="-253" />
            </Array>
          </mxGeometry>
        </mxCell>
      </root>
    </mxGraphModel>
  </diagram>
</mxfile>
